<?xml version="1.0" encoding="UTF-8"?><svg id="Layer_3" xmlns="http://www.w3.org/2000/svg" width="156" height="44" viewBox="0 0 156 44"><defs><style>.cls-1{fill:#fff;stroke-width:0px;}</style></defs><path class="cls-1" d="M152.4,40.5H.32V.41h152.08v40.09ZM1.07,39.75h150.58V1.16H1.07v38.59Z"/><path class="cls-1" d="M155.68,43.59H3.6V3.5h152.08v40.09ZM4.35,42.84h150.58V4.25H4.35v38.59Z"/><path class="cls-1" d="M56.03,25.54c-.67,0-1.26-.15-1.76-.45-.5-.3-.9-.73-1.18-1.3-.28-.57-.42-1.26-.42-2.07s.14-1.48.42-2.05c.28-.57.68-1.01,1.18-1.31.5-.3,1.09-.46,1.76-.46s1.26.15,1.77.45c.51.3.9.73,1.18,1.3.28.57.42,1.26.42,2.07s-.14,1.48-.42,2.05c-.28.57-.67,1.01-1.18,1.31-.51.3-1.1.46-1.77.46ZM56.03,24.64c.74,0,1.31-.26,1.72-.78s.61-1.23.61-2.15-.2-1.62-.59-2.14c-.39-.52-.97-.77-1.74-.77s-1.34.25-1.73.75c-.4.5-.59,1.23-.59,2.18s.2,1.61.59,2.13.97.78,1.73.78Z"/><path class="cls-1" d="M61.18,25.37v-7.29h1.03v1.2l-.14-.1c.15-.41.34-.72.58-.94s.54-.33.91-.33c.43,0,.76.12,1,.36.24.24.4.5.48.78.17-.31.39-.58.66-.81.27-.22.6-.34.98-.34.61,0,1.06.2,1.35.58.29.39.43,1,.43,1.83v5.05h-1.03v-4.47c0-.69-.06-1.21-.17-1.56-.11-.34-.37-.51-.77-.51-.29,0-.51.1-.68.3-.17.2-.29.46-.36.79s-.11.69-.11,1.08v4.37h-1.03v-4.65c0-.32-.02-.62-.05-.91-.04-.29-.12-.52-.24-.7s-.32-.27-.59-.27-.5.1-.68.3c-.18.2-.31.46-.4.79s-.13.69-.13,1.08v4.37h-1.03Z"/><path class="cls-1" d="M78.76,25.37v-7.29h1.03v1.2l-.14-.1c.15-.41.34-.72.58-.94s.54-.33.91-.33c.43,0,.76.12,1,.36.24.24.4.5.48.78.17-.31.39-.58.66-.81.27-.22.6-.34.98-.34.61,0,1.06.2,1.35.58.29.39.43,1,.43,1.83v5.05h-1.03v-4.47c0-.69-.06-1.21-.17-1.56-.11-.34-.37-.51-.77-.51-.29,0-.51.1-.68.3-.17.2-.29.46-.36.79s-.11.69-.11,1.08v4.37h-1.03v-4.65c0-.32-.02-.62-.05-.91-.04-.29-.12-.52-.24-.7s-.32-.27-.59-.27-.5.1-.68.3c-.18.2-.31.46-.4.79s-.13.69-.13,1.08v4.37h-1.03Z"/><path class="cls-1" d="M88.9,18.97v-.9h2.51v.9h-2.51ZM88.9,25.37v-.9h5.02v.9h-5.02ZM91.41,16.58c-.19,0-.34-.06-.47-.19s-.19-.28-.19-.47c0-.19.06-.36.19-.49s.28-.2.47-.2c.2,0,.35.07.47.2s.18.29.18.49-.06.34-.18.47-.28.19-.47.19ZM90.91,25.08v-7.01h1v7.01h-1Z"/><path class="cls-1" d="M99.39,28.41l-.46-.79c.79-.04,1.39-.16,1.81-.34.41-.19.7-.42.85-.7.15-.28.23-.59.23-.92v-1.11c-.2.3-.47.55-.79.73-.32.18-.76.27-1.31.27s-1.05-.14-1.52-.43c-.47-.29-.85-.71-1.13-1.28-.29-.57-.43-1.27-.43-2.12,0-.8.13-1.48.4-2.05s.64-1,1.11-1.31c.47-.3,1.01-.45,1.63-.45.4,0,.74.05,1.02.15.27.1.49.22.66.36s.29.25.37.35v-.69h1v7.18c0,.6-.09,1.1-.28,1.5-.19.4-.44.72-.76.95-.32.24-.69.41-1.1.51-.41.11-.84.17-1.28.19ZM99.95,24.64c.35,0,.7-.11,1.05-.32s.62-.51.82-.89v-3.51c-.2-.37-.49-.64-.85-.83-.36-.19-.7-.28-1.02-.28-.76,0-1.32.25-1.7.75-.38.5-.57,1.22-.57,2.16s.22,1.65.65,2.16c.43.51.97.76,1.62.76Z"/></svg>