<?xml version="1.0" encoding="UTF-8"?><svg id="Layer_1" xmlns="http://www.w3.org/2000/svg" width="221" height="43" viewBox="0 0 221 43"><defs><style>.cls-1{fill:none;stroke:#fff;}</style></defs><path class="cls-1" d="M20.85,41.97c-3.96,0-7.43-.86-10.41-2.58-2.98-1.72-5.3-4.13-6.96-7.23-1.66-3.1-2.49-6.69-2.49-10.77s.83-7.78,2.49-10.86c1.66-3.08,3.98-5.48,6.96-7.2,2.98-1.72,6.45-2.58,10.41-2.58s7.43.85,10.41,2.55c2.98,1.7,5.29,4.08,6.93,7.14,1.64,3.06,2.46,6.63,2.46,10.71s-.82,7.8-2.46,10.92c-1.64,3.12-3.95,5.55-6.93,7.29-2.98,1.74-6.45,2.61-10.41,2.61ZM20.85,34.35c3.32,0,5.96-1.18,7.92-3.54,1.96-2.36,2.94-5.5,2.94-9.42,0-2.6-.45-4.88-1.35-6.84-.9-1.96-2.17-3.48-3.81-4.56-1.64-1.08-3.54-1.6-5.7-1.56-2.16-.04-4.05.48-5.67,1.56-1.62,1.08-2.89,2.6-3.81,4.56-.92,1.96-1.38,4.24-1.38,6.84s.45,4.87,1.35,6.81c.9,1.94,2.17,3.45,3.81,4.53,1.64,1.08,3.54,1.62,5.7,1.62Z"/><path class="cls-1" d="M66.63,42.27l-10.62-29.28-2.52,28.2h-7.74L49.53,1.23h10.8l10.2,28.68L80.43,1.23h10.8l3.66,39.96h-7.8l-2.76-28.08-10.56,28.5-7.14.66Z"/><path class="cls-1" d="M133.29,42.27l-10.62-29.28-2.52,28.2h-7.74l3.78-39.96h10.8l10.2,28.68,9.9-28.68h10.8l3.66,39.96h-7.8l-2.76-28.08-10.56,28.5-7.14.66Z"/><path class="cls-1" d="M169.05,41.19V1.23h8.7v39.96h-8.7Z"/><path class="cls-1" d="M206.61,42.09c-4.48,0-8.32-.79-11.52-2.37-3.2-1.58-5.66-3.84-7.38-6.78-1.72-2.94-2.58-6.47-2.58-10.59,0-4.36.91-8.16,2.73-11.4,1.82-3.24,4.37-5.76,7.65-7.56,3.28-1.8,7.1-2.7,11.46-2.7,2.48,0,4.83.28,7.05.84,2.22.56,4.19,1.36,5.91,2.4l-2.1,7.2c-1.56-.96-3.29-1.71-5.19-2.25-1.9-.54-3.79-.81-5.67-.81-2.64,0-4.96.57-6.96,1.71-2,1.14-3.56,2.73-4.68,4.77-1.12,2.04-1.68,4.44-1.68,7.2,0,4,1.21,7.15,3.63,9.45,2.42,2.3,5.73,3.45,9.93,3.45,1.68,0,3.24-.12,4.68-.36v-8.28h-5.04v-7.02h13.02v20.76c-4.12,1.56-8.54,2.34-13.26,2.34Z"/></svg>