<?xml version="1.0" encoding="UTF-8"?><svg id="Layer_1" xmlns="http://www.w3.org/2000/svg" width="359.69mm" height="307.33mm" viewBox="0 0 1019.59 871.17"><defs><style>.cls-1{stroke:#ff8a00;}.cls-1,.cls-2{fill:none;stroke-miterlimit:10;stroke-width:2px;}.cls-2{stroke:#fff;}.cls-3{fill:#fff;}.cls-3,.cls-4{stroke-width:0px;}.cls-4{fill:#ff8a00;}</style></defs><path class="cls-3" d="M1,134.8V1.6c2.93-.13,6.3-.2,10.1-.2h23.9c3.87,0,7.27.07,10.2.2,13.6.27,24.37,3.9,32.3,10.9,7.93,7,11.9,16.83,11.9,29.5,0,9.07-2.03,17-6.1,23.8-4.07,6.8-9.67,12.07-16.8,15.8-7.13,3.73-15.37,5.6-24.7,5.6h-13v47.6H1ZM28.8,63.6h11.8c6.53,0,11.63-1.87,15.3-5.6,3.67-3.73,5.5-8.8,5.5-15.2,0-11.73-6.47-17.6-19.4-17.6h-13.2v38.4Z"/><path class="cls-3" d="M173.6,137.4c-13.2,0-24.77-2.87-34.7-8.6-9.93-5.73-17.67-13.77-23.2-24.1-5.53-10.33-8.3-22.3-8.3-35.9s2.77-25.93,8.3-36.2c5.53-10.27,13.27-18.27,23.2-24,9.93-5.73,21.5-8.6,34.7-8.6s24.77,2.83,34.7,8.5c9.93,5.67,17.63,13.6,23.1,23.8,5.47,10.2,8.2,22.1,8.2,35.7s-2.73,26-8.2,36.4c-5.47,10.4-13.17,18.5-23.1,24.3-9.93,5.8-21.5,8.7-34.7,8.7ZM173.6,112c11.07,0,19.87-3.93,26.4-11.8,6.53-7.87,9.8-18.33,9.8-31.4,0-8.67-1.5-16.27-4.5-22.8-3-6.53-7.23-11.6-12.7-15.2-5.47-3.6-11.8-5.33-19-5.2-7.2-.13-13.5,1.6-18.9,5.2-5.4,3.6-9.63,8.67-12.7,15.2-3.07,6.53-4.6,14.13-4.6,22.8s1.5,16.23,4.5,22.7c3,6.47,7.23,11.5,12.7,15.1,5.47,3.6,11.8,5.4,19,5.4Z"/><path class="cls-3" d="M260.8,134.8V1.6c3.07-.13,6.53-.2,10.4-.2h24.2c4,0,7.47.07,10.4.2,15.73.53,27.2,4.37,34.4,11.5,7.2,7.13,10.8,16.23,10.8,27.3,0,9.73-2.5,18.03-7.5,24.9-5,6.87-11.97,11.43-20.9,13.7,3.07,2.4,6.07,5.63,9,9.7,2.93,4.07,6.87,10.03,11.8,17.9,2.53,3.87,4.63,7.27,6.3,10.2,1.67,2.93,3.3,5.77,4.9,8.5,1.6,2.73,3.4,5.9,5.4,9.5h-33.6l-22.6-42c-2.53-4.67-4.8-7.5-6.8-8.5s-4.8-1.5-8.4-1.5v52h-27.8ZM288.6,60.6h12.4c6.93,0,12.33-1.73,16.2-5.2,3.87-3.47,5.8-8.13,5.8-14,0-10.93-6.8-16.4-20.4-16.4h-14v35.6Z"/><path class="cls-3" d="M402,134.8V26.8h-36.4V1.6h101.6v25.2h-36v108h-29.2Z"/><path class="cls-3" d="M487.2,134.8V1.6h81.4v25.2h-52.4v30.4h43.4v25h-43.4v52.6h-29Z"/><path class="cls-3" d="M647.2,137.4c-13.2,0-24.77-2.87-34.7-8.6-9.93-5.73-17.67-13.77-23.2-24.1-5.53-10.33-8.3-22.3-8.3-35.9s2.77-25.93,8.3-36.2c5.53-10.27,13.27-18.27,23.2-24,9.93-5.73,21.5-8.6,34.7-8.6s24.77,2.83,34.7,8.5c9.93,5.67,17.63,13.6,23.1,23.8,5.47,10.2,8.2,22.1,8.2,35.7s-2.73,26-8.2,36.4c-5.47,10.4-13.17,18.5-23.1,24.3-9.93,5.8-21.5,8.7-34.7,8.7ZM647.2,112c11.07,0,19.87-3.93,26.4-11.8,6.53-7.87,9.8-18.33,9.8-31.4,0-8.67-1.5-16.27-4.5-22.8-3-6.53-7.23-11.6-12.7-15.2-5.47-3.6-11.8-5.33-19-5.2-7.2-.13-13.5,1.6-18.9,5.2-5.4,3.6-9.63,8.67-12.7,15.2-3.07,6.53-4.6,14.13-4.6,22.8s1.5,16.23,4.5,22.7c3,6.47,7.23,11.5,12.7,15.1,5.47,3.6,11.8,5.4,19,5.4Z"/><path class="cls-3" d="M735.2,134.8V1.6h29v108h48v25.2h-77Z"/><path class="cls-3" d="M833.79,134.8V1.6h29v133.2h-29Z"/><path class="cls-3" d="M952.59,137.4c-13.2,0-24.77-2.87-34.7-8.6-9.93-5.73-17.67-13.77-23.2-24.1-5.53-10.33-8.3-22.3-8.3-35.9s2.77-25.93,8.3-36.2c5.53-10.27,13.27-18.27,23.2-24,9.93-5.73,21.5-8.6,34.7-8.6s24.77,2.83,34.7,8.5c9.93,5.67,17.63,13.6,23.1,23.8,5.47,10.2,8.2,22.1,8.2,35.7s-2.73,26-8.2,36.4c-5.47,10.4-13.17,18.5-23.1,24.3-9.93,5.8-21.5,8.7-34.7,8.7ZM952.59,112c11.07,0,19.87-3.93,26.4-11.8,6.53-7.87,9.8-18.33,9.8-31.4,0-8.67-1.5-16.27-4.5-22.8-3-6.53-7.23-11.6-12.7-15.2-5.47-3.6-11.8-5.33-19-5.2-7.2-.13-13.5,1.6-18.9,5.2-5.4,3.6-9.63,8.67-12.7,15.2-3.07,6.53-4.6,14.13-4.6,22.8s1.5,16.23,4.5,22.7c3,6.47,7.23,11.5,12.7,15.1,5.47,3.6,11.8,5.4,19,5.4Z"/><path class="cls-4" d="M1,574.46v-133.2c2.93-.13,6.3-.2,10.1-.2h23.9c3.87,0,7.27.07,10.2.2,13.6.27,24.37,3.9,32.3,10.9,7.93,7,11.9,16.83,11.9,29.5,0,9.07-2.03,17-6.1,23.8-4.07,6.8-9.67,12.07-16.8,15.8-7.13,3.73-15.37,5.6-24.7,5.6h-13v47.6H1ZM28.8,503.26h11.8c6.53,0,11.63-1.87,15.3-5.6,3.67-3.73,5.5-8.8,5.5-15.2,0-11.73-6.47-17.6-19.4-17.6h-13.2v38.4Z"/><path class="cls-4" d="M173.6,577.06c-13.2,0-24.77-2.87-34.7-8.6-9.93-5.73-17.67-13.77-23.2-24.1-5.53-10.33-8.3-22.3-8.3-35.9s2.77-25.93,8.3-36.2c5.53-10.27,13.27-18.27,23.2-24,9.93-5.73,21.5-8.6,34.7-8.6s24.77,2.83,34.7,8.5c9.93,5.67,17.63,13.6,23.1,23.8,5.47,10.2,8.2,22.1,8.2,35.7s-2.73,26-8.2,36.4c-5.47,10.4-13.17,18.5-23.1,24.3-9.93,5.8-21.5,8.7-34.7,8.7ZM173.6,551.66c11.07,0,19.87-3.93,26.4-11.8,6.53-7.87,9.8-18.33,9.8-31.4,0-8.67-1.5-16.27-4.5-22.8-3-6.53-7.23-11.6-12.7-15.2-5.47-3.6-11.8-5.33-19-5.2-7.2-.13-13.5,1.6-18.9,5.2-5.4,3.6-9.63,8.67-12.7,15.2-3.07,6.54-4.6,14.13-4.6,22.8s1.5,16.23,4.5,22.7c3,6.47,7.23,11.5,12.7,15.1,5.47,3.6,11.8,5.4,19,5.4Z"/><path class="cls-4" d="M260.8,574.46v-133.2c3.07-.13,6.53-.2,10.4-.2h24.2c4,0,7.47.07,10.4.2,15.73.53,27.2,4.37,34.4,11.5,7.2,7.13,10.8,16.23,10.8,27.3,0,9.73-2.5,18.03-7.5,24.9-5,6.87-11.97,11.43-20.9,13.7,3.07,2.4,6.07,5.63,9,9.7,2.93,4.07,6.87,10.03,11.8,17.9,2.53,3.87,4.63,7.27,6.3,10.2,1.67,2.93,3.3,5.77,4.9,8.5,1.6,2.73,3.4,5.9,5.4,9.5h-33.6l-22.6-42c-2.53-4.67-4.8-7.5-6.8-8.5s-4.8-1.5-8.4-1.5v52h-27.8ZM288.6,500.26h12.4c6.93,0,12.33-1.73,16.2-5.2,3.87-3.47,5.8-8.13,5.8-14,0-10.93-6.8-16.4-20.4-16.4h-14v35.6Z"/><path class="cls-4" d="M402,574.46v-108h-36.4v-25.2h101.6v25.2h-36v108h-29.2Z"/><path class="cls-4" d="M487.2,574.46v-133.2h81.4v25.2h-52.4v30.4h43.4v25h-43.4v52.6h-29Z"/><path class="cls-4" d="M647.2,577.06c-13.2,0-24.77-2.87-34.7-8.6-9.93-5.73-17.67-13.77-23.2-24.1-5.53-10.33-8.3-22.3-8.3-35.9s2.77-25.93,8.3-36.2c5.53-10.27,13.27-18.27,23.2-24,9.93-5.73,21.5-8.6,34.7-8.6s24.77,2.83,34.7,8.5c9.93,5.67,17.63,13.6,23.1,23.8,5.47,10.2,8.2,22.1,8.2,35.7s-2.73,26-8.2,36.4c-5.47,10.4-13.17,18.5-23.1,24.3-9.93,5.8-21.5,8.7-34.7,8.7ZM647.2,551.66c11.07,0,19.87-3.93,26.4-11.8,6.53-7.87,9.8-18.33,9.8-31.4,0-8.67-1.5-16.27-4.5-22.8-3-6.53-7.23-11.6-12.7-15.2-5.47-3.6-11.8-5.33-19-5.2-7.2-.13-13.5,1.6-18.9,5.2-5.4,3.6-9.63,8.67-12.7,15.2-3.07,6.54-4.6,14.13-4.6,22.8s1.5,16.23,4.5,22.7c3,6.47,7.23,11.5,12.7,15.1,5.46,3.6,11.8,5.4,19,5.4Z"/><path class="cls-4" d="M735.2,574.46v-133.2h29v108h48v25.2h-77Z"/><path class="cls-4" d="M833.79,574.46v-133.2h29v133.2h-29Z"/><path class="cls-4" d="M952.59,577.06c-13.2,0-24.77-2.87-34.7-8.6-9.93-5.73-17.67-13.77-23.2-24.1-5.53-10.33-8.3-22.3-8.3-35.9s2.77-25.93,8.3-36.2c5.53-10.27,13.27-18.27,23.2-24,9.93-5.73,21.5-8.6,34.7-8.6s24.77,2.83,34.7,8.5c9.93,5.67,17.63,13.6,23.1,23.8,5.47,10.2,8.2,22.1,8.2,35.7s-2.73,26-8.2,36.4c-5.47,10.4-13.17,18.5-23.1,24.3-9.93,5.8-21.5,8.7-34.7,8.7ZM952.59,551.66c11.07,0,19.87-3.93,26.4-11.8,6.53-7.87,9.8-18.33,9.8-31.4,0-8.67-1.5-16.27-4.5-22.8-3-6.53-7.23-11.6-12.7-15.2-5.47-3.6-11.8-5.33-19-5.2-7.2-.13-13.5,1.6-18.9,5.2-5.4,3.6-9.63,8.67-12.7,15.2-3.07,6.54-4.6,14.13-4.6,22.8s1.5,16.23,4.5,22.7c3,6.47,7.23,11.5,12.7,15.1,5.47,3.6,11.8,5.4,19,5.4Z"/><path class="cls-4" d="M1,281.35v-133.2c2.93-.13,6.3-.2,10.1-.2h23.9c3.87,0,7.27.07,10.2.2,13.6.27,24.37,3.9,32.3,10.9,7.93,7,11.9,16.83,11.9,29.5,0,9.07-2.03,17-6.1,23.8-4.07,6.8-9.67,12.07-16.8,15.8-7.13,3.73-15.37,5.6-24.7,5.6h-13v47.6H1ZM28.8,210.15h11.8c6.53,0,11.63-1.87,15.3-5.6,3.67-3.73,5.5-8.8,5.5-15.2,0-11.73-6.47-17.6-19.4-17.6h-13.2v38.4Z"/><path class="cls-4" d="M173.6,283.95c-13.2,0-24.77-2.87-34.7-8.6-9.93-5.73-17.67-13.77-23.2-24.1-5.53-10.33-8.3-22.3-8.3-35.9s2.77-25.93,8.3-36.2c5.53-10.27,13.27-18.27,23.2-24,9.93-5.73,21.5-8.6,34.7-8.6s24.77,2.83,34.7,8.5c9.93,5.67,17.63,13.6,23.1,23.8,5.47,10.2,8.2,22.1,8.2,35.7s-2.73,26-8.2,36.4c-5.47,10.4-13.17,18.5-23.1,24.3-9.93,5.8-21.5,8.7-34.7,8.7ZM173.6,258.55c11.07,0,19.87-3.93,26.4-11.8,6.53-7.87,9.8-18.33,9.8-31.4,0-8.67-1.5-16.27-4.5-22.8-3-6.53-7.23-11.6-12.7-15.2-5.47-3.6-11.8-5.33-19-5.2-7.2-.13-13.5,1.6-18.9,5.2-5.4,3.6-9.63,8.67-12.7,15.2-3.07,6.53-4.6,14.13-4.6,22.8s1.5,16.23,4.5,22.7c3,6.47,7.23,11.5,12.7,15.1,5.47,3.6,11.8,5.4,19,5.4Z"/><path class="cls-4" d="M260.8,281.35v-133.2c3.07-.13,6.53-.2,10.4-.2h24.2c4,0,7.47.07,10.4.2,15.73.53,27.2,4.37,34.4,11.5,7.2,7.13,10.8,16.23,10.8,27.3,0,9.73-2.5,18.03-7.5,24.9-5,6.87-11.97,11.43-20.9,13.7,3.07,2.4,6.07,5.63,9,9.7,2.93,4.07,6.87,10.03,11.8,17.9,2.53,3.87,4.63,7.27,6.3,10.2,1.67,2.93,3.3,5.77,4.9,8.5,1.6,2.73,3.4,5.9,5.4,9.5h-33.6l-22.6-42c-2.53-4.67-4.8-7.5-6.8-8.5s-4.8-1.5-8.4-1.5v52h-27.8ZM288.6,207.15h12.4c6.93,0,12.33-1.73,16.2-5.2,3.87-3.47,5.8-8.13,5.8-14,0-10.93-6.8-16.4-20.4-16.4h-14v35.6Z"/><path class="cls-4" d="M402,281.35v-108h-36.4v-25.2h101.6v25.2h-36v108h-29.2Z"/><path class="cls-4" d="M487.2,281.35v-133.2h81.4v25.2h-52.4v30.4h43.4v25h-43.4v52.6h-29Z"/><path class="cls-4" d="M647.2,283.95c-13.2,0-24.77-2.87-34.7-8.6-9.93-5.73-17.67-13.77-23.2-24.1-5.53-10.33-8.3-22.3-8.3-35.9s2.77-25.93,8.3-36.2c5.53-10.27,13.27-18.27,23.2-24,9.93-5.73,21.5-8.6,34.7-8.6s24.77,2.83,34.7,8.5c9.93,5.67,17.63,13.6,23.1,23.8,5.47,10.2,8.2,22.1,8.2,35.7s-2.73,26-8.2,36.4c-5.47,10.4-13.17,18.5-23.1,24.3-9.93,5.8-21.5,8.7-34.7,8.7ZM647.2,258.55c11.07,0,19.87-3.93,26.4-11.8,6.53-7.87,9.8-18.33,9.8-31.4,0-8.67-1.5-16.27-4.5-22.8-3-6.53-7.23-11.6-12.7-15.2-5.47-3.6-11.8-5.33-19-5.2-7.2-.13-13.5,1.6-18.9,5.2-5.4,3.6-9.63,8.67-12.7,15.2-3.07,6.53-4.6,14.13-4.6,22.8s1.5,16.23,4.5,22.7c3,6.47,7.23,11.5,12.7,15.1,5.47,3.6,11.8,5.4,19,5.4Z"/><path class="cls-4" d="M735.2,281.35v-133.2h29v108h48v25.2h-77Z"/><path class="cls-4" d="M833.79,281.35v-133.2h29v133.2h-29Z"/><path class="cls-4" d="M952.59,283.95c-13.2,0-24.77-2.87-34.7-8.6-9.93-5.73-17.67-13.77-23.2-24.1-5.53-10.33-8.3-22.3-8.3-35.9s2.77-25.93,8.3-36.2c5.53-10.27,13.27-18.27,23.2-24,9.93-5.73,21.5-8.6,34.7-8.6s24.77,2.83,34.7,8.5c9.93,5.67,17.63,13.6,23.1,23.8,5.47,10.2,8.2,22.1,8.2,35.7s-2.73,26-8.2,36.4c-5.47,10.4-13.17,18.5-23.1,24.3-9.93,5.8-21.5,8.7-34.7,8.7ZM952.59,258.55c11.07,0,19.87-3.93,26.4-11.8,6.53-7.87,9.8-18.33,9.8-31.4,0-8.67-1.5-16.27-4.5-22.8-3-6.53-7.23-11.6-12.7-15.2-5.47-3.6-11.8-5.33-19-5.2-7.2-.13-13.5,1.6-18.9,5.2-5.4,3.6-9.63,8.67-12.7,15.2-3.07,6.53-4.6,14.13-4.6,22.8s1.5,16.23,4.5,22.7c3,6.47,7.23,11.5,12.7,15.1,5.47,3.6,11.8,5.4,19,5.4Z"/><path class="cls-2" d="M1,427.91v-133.2c2.93-.13,6.3-.2,10.1-.2h23.9c3.87,0,7.27.07,10.2.2,13.6.27,24.37,3.9,32.3,10.9,7.93,7,11.9,16.83,11.9,29.5,0,9.07-2.03,17-6.1,23.8-4.07,6.8-9.67,12.07-16.8,15.8-7.13,3.73-15.37,5.6-24.7,5.6h-13v47.6H1ZM28.8,356.71h11.8c6.53,0,11.63-1.87,15.3-5.6,3.67-3.73,5.5-8.8,5.5-15.2,0-11.73-6.47-17.6-19.4-17.6h-13.2v38.4Z"/><path class="cls-2" d="M173.6,430.51c-13.2,0-24.77-2.87-34.7-8.6-9.93-5.73-17.67-13.77-23.2-24.1-5.53-10.33-8.3-22.3-8.3-35.9s2.77-25.93,8.3-36.2c5.53-10.27,13.27-18.27,23.2-24,9.93-5.73,21.5-8.6,34.7-8.6s24.77,2.83,34.7,8.5c9.93,5.67,17.63,13.6,23.1,23.8,5.47,10.2,8.2,22.1,8.2,35.7s-2.73,26-8.2,36.4c-5.47,10.4-13.17,18.5-23.1,24.3-9.93,5.8-21.5,8.7-34.7,8.7ZM173.6,405.11c11.07,0,19.87-3.93,26.4-11.8,6.53-7.87,9.8-18.33,9.8-31.4,0-8.67-1.5-16.27-4.5-22.8-3-6.53-7.23-11.6-12.7-15.2-5.47-3.6-11.8-5.33-19-5.2-7.2-.13-13.5,1.6-18.9,5.2-5.4,3.6-9.63,8.67-12.7,15.2-3.07,6.53-4.6,14.13-4.6,22.8s1.5,16.23,4.5,22.7c3,6.47,7.23,11.5,12.7,15.1,5.47,3.6,11.8,5.4,19,5.4Z"/><path class="cls-2" d="M260.8,427.91v-133.2c3.07-.13,6.53-.2,10.4-.2h24.2c4,0,7.47.07,10.4.2,15.73.53,27.2,4.37,34.4,11.5,7.2,7.13,10.8,16.23,10.8,27.3,0,9.73-2.5,18.03-7.5,24.9-5,6.87-11.97,11.43-20.9,13.7,3.07,2.4,6.07,5.63,9,9.7,2.93,4.07,6.87,10.03,11.8,17.9,2.53,3.87,4.63,7.27,6.3,10.2,1.67,2.93,3.3,5.77,4.9,8.5,1.6,2.73,3.4,5.9,5.4,9.5h-33.6l-22.6-42c-2.53-4.67-4.8-7.5-6.8-8.5s-4.8-1.5-8.4-1.5v52h-27.8ZM288.6,353.71h12.4c6.93,0,12.33-1.73,16.2-5.2,3.87-3.47,5.8-8.13,5.8-14,0-10.93-6.8-16.4-20.4-16.4h-14v35.6Z"/><path class="cls-2" d="M402,427.91v-108h-36.4v-25.2h101.6v25.2h-36v108h-29.2Z"/><path class="cls-2" d="M487.2,427.91v-133.2h81.4v25.2h-52.4v30.4h43.4v25h-43.4v52.6h-29Z"/><path class="cls-2" d="M647.2,430.51c-13.2,0-24.77-2.87-34.7-8.6-9.93-5.73-17.67-13.77-23.2-24.1-5.53-10.33-8.3-22.3-8.3-35.9s2.77-25.93,8.3-36.2c5.53-10.27,13.27-18.27,23.2-24,9.93-5.73,21.5-8.6,34.7-8.6s24.77,2.83,34.7,8.5c9.93,5.67,17.63,13.6,23.1,23.8,5.47,10.2,8.2,22.1,8.2,35.7s-2.73,26-8.2,36.4c-5.47,10.4-13.17,18.5-23.1,24.3-9.93,5.8-21.5,8.7-34.7,8.7ZM647.2,405.11c11.07,0,19.87-3.93,26.4-11.8,6.53-7.87,9.8-18.33,9.8-31.4,0-8.67-1.5-16.27-4.5-22.8-3-6.53-7.23-11.6-12.7-15.2-5.47-3.6-11.8-5.33-19-5.2-7.2-.13-13.5,1.6-18.9,5.2-5.4,3.6-9.63,8.67-12.7,15.2-3.07,6.53-4.6,14.13-4.6,22.8s1.5,16.23,4.5,22.7c3,6.47,7.23,11.5,12.7,15.1,5.47,3.6,11.8,5.4,19,5.4Z"/><path class="cls-2" d="M735.2,427.91v-133.2h29v108h48v25.2h-77Z"/><path class="cls-2" d="M833.79,427.91v-133.2h29v133.2h-29Z"/><path class="cls-2" d="M952.59,430.51c-13.2,0-24.77-2.87-34.7-8.6-9.93-5.73-17.67-13.77-23.2-24.1-5.53-10.33-8.3-22.3-8.3-35.9s2.77-25.93,8.3-36.2c5.53-10.27,13.27-18.27,23.2-24,9.93-5.73,21.5-8.6,34.7-8.6s24.77,2.83,34.7,8.5c9.93,5.67,17.63,13.6,23.1,23.8,5.47,10.2,8.2,22.1,8.2,35.7s-2.73,26-8.2,36.4c-5.47,10.4-13.17,18.5-23.1,24.3-9.93,5.8-21.5,8.7-34.7,8.7ZM952.59,405.11c11.07,0,19.87-3.93,26.4-11.8,6.53-7.87,9.8-18.33,9.8-31.4,0-8.67-1.5-16.27-4.5-22.8-3-6.53-7.23-11.6-12.7-15.2-5.47-3.6-11.8-5.33-19-5.2-7.2-.13-13.5,1.6-18.9,5.2-5.4,3.6-9.63,8.67-12.7,15.2-3.07,6.53-4.6,14.13-4.6,22.8s1.5,16.23,4.5,22.7c3,6.47,7.23,11.5,12.7,15.1,5.47,3.6,11.8,5.4,19,5.4Z"/><path class="cls-3" d="M1,721.02v-133.2c2.93-.13,6.3-.2,10.1-.2h23.9c3.87,0,7.27.07,10.2.2,13.6.27,24.37,3.9,32.3,10.9,7.93,7,11.9,16.83,11.9,29.5,0,9.07-2.03,17-6.1,23.8-4.07,6.8-9.67,12.07-16.8,15.8-7.13,3.73-15.37,5.6-24.7,5.6h-13v47.6H1ZM28.8,649.82h11.8c6.53,0,11.63-1.87,15.3-5.6,3.67-3.73,5.5-8.8,5.5-15.2,0-11.73-6.47-17.6-19.4-17.6h-13.2v38.4Z"/><path class="cls-3" d="M173.6,723.62c-13.2,0-24.77-2.87-34.7-8.6-9.93-5.73-17.67-13.77-23.2-24.1-5.53-10.33-8.3-22.3-8.3-35.9s2.77-25.93,8.3-36.2c5.53-10.27,13.27-18.27,23.2-24,9.93-5.73,21.5-8.6,34.7-8.6s24.77,2.83,34.7,8.5c9.93,5.67,17.63,13.6,23.1,23.8,5.47,10.2,8.2,22.1,8.2,35.7s-2.73,26-8.2,36.4c-5.47,10.4-13.17,18.5-23.1,24.3-9.93,5.8-21.5,8.7-34.7,8.7ZM173.6,698.22c11.07,0,19.87-3.93,26.4-11.8,6.53-7.87,9.8-18.33,9.8-31.4,0-8.67-1.5-16.27-4.5-22.8-3-6.53-7.23-11.6-12.7-15.2-5.47-3.6-11.8-5.33-19-5.2-7.2-.13-13.5,1.6-18.9,5.2-5.4,3.6-9.63,8.67-12.7,15.2-3.07,6.53-4.6,14.13-4.6,22.8s1.5,16.23,4.5,22.7c3,6.47,7.23,11.5,12.7,15.1,5.47,3.6,11.8,5.4,19,5.4Z"/><path class="cls-3" d="M260.8,721.02v-133.2c3.07-.13,6.53-.2,10.4-.2h24.2c4,0,7.47.07,10.4.2,15.73.53,27.2,4.37,34.4,11.5,7.2,7.13,10.8,16.23,10.8,27.3,0,9.73-2.5,18.03-7.5,24.9-5,6.87-11.97,11.43-20.9,13.7,3.07,2.4,6.07,5.63,9,9.7,2.93,4.07,6.87,10.04,11.8,17.9,2.53,3.87,4.63,7.27,6.3,10.2,1.67,2.93,3.3,5.77,4.9,8.5,1.6,2.73,3.4,5.9,5.4,9.5h-33.6l-22.6-42c-2.53-4.67-4.8-7.5-6.8-8.5s-4.8-1.5-8.4-1.5v52h-27.8ZM288.6,646.82h12.4c6.93,0,12.33-1.73,16.2-5.2,3.87-3.47,5.8-8.13,5.8-14,0-10.93-6.8-16.4-20.4-16.4h-14v35.6Z"/><path class="cls-3" d="M402,721.02v-108h-36.4v-25.2h101.6v25.2h-36v108h-29.2Z"/><path class="cls-3" d="M487.2,721.02v-133.2h81.4v25.2h-52.4v30.4h43.4v25h-43.4v52.6h-29Z"/><path class="cls-3" d="M647.2,723.62c-13.2,0-24.77-2.87-34.7-8.6-9.93-5.73-17.67-13.77-23.2-24.1-5.53-10.33-8.3-22.3-8.3-35.9s2.77-25.93,8.3-36.2c5.53-10.27,13.27-18.27,23.2-24,9.93-5.73,21.5-8.6,34.7-8.6s24.77,2.83,34.7,8.5c9.93,5.67,17.63,13.6,23.1,23.8,5.47,10.2,8.2,22.1,8.2,35.7s-2.73,26-8.2,36.4c-5.47,10.4-13.17,18.5-23.1,24.3-9.93,5.8-21.5,8.7-34.7,8.7ZM647.2,698.22c11.07,0,19.87-3.93,26.4-11.8,6.53-7.87,9.8-18.33,9.8-31.4,0-8.67-1.5-16.27-4.5-22.8-3-6.53-7.23-11.6-12.7-15.2-5.47-3.6-11.8-5.33-19-5.2-7.2-.13-13.5,1.6-18.9,5.2-5.4,3.6-9.63,8.67-12.7,15.2-3.07,6.53-4.6,14.13-4.6,22.8s1.5,16.23,4.5,22.7c3,6.47,7.23,11.5,12.7,15.1,5.47,3.6,11.8,5.4,19,5.4Z"/><path class="cls-3" d="M735.2,721.02v-133.2h29v108h48v25.2h-77Z"/><path class="cls-3" d="M833.79,721.02v-133.2h29v133.2h-29Z"/><path class="cls-3" d="M952.59,723.62c-13.2,0-24.77-2.87-34.7-8.6-9.93-5.73-17.67-13.77-23.2-24.1-5.53-10.33-8.3-22.3-8.3-35.9s2.77-25.93,8.3-36.2c5.53-10.27,13.27-18.27,23.2-24,9.93-5.73,21.5-8.6,34.7-8.6s24.77,2.83,34.7,8.5c9.93,5.67,17.63,13.6,23.1,23.8,5.47,10.2,8.2,22.1,8.2,35.7s-2.73,26-8.2,36.4c-5.47,10.4-13.17,18.5-23.1,24.3-9.93,5.8-21.5,8.7-34.7,8.7ZM952.59,698.22c11.07,0,19.87-3.93,26.4-11.8,6.53-7.87,9.8-18.33,9.8-31.4,0-8.67-1.5-16.27-4.5-22.8-3-6.53-7.23-11.6-12.7-15.2-5.47-3.6-11.8-5.33-19-5.2-7.2-.13-13.5,1.6-18.9,5.2-5.4,3.6-9.63,8.67-12.7,15.2-3.07,6.53-4.6,14.13-4.6,22.8s1.5,16.23,4.5,22.7c3,6.47,7.23,11.5,12.7,15.1,5.47,3.6,11.8,5.4,19,5.4Z"/><path class="cls-1" d="M1,867.57v-133.2c2.93-.13,6.3-.2,10.1-.2h23.9c3.87,0,7.27.07,10.2.2,13.6.27,24.37,3.9,32.3,10.9,7.93,7,11.9,16.83,11.9,29.5,0,9.07-2.03,17-6.1,23.8-4.07,6.8-9.67,12.07-16.8,15.8-7.13,3.73-15.37,5.6-24.7,5.6h-13v47.6H1ZM28.8,796.37h11.8c6.53,0,11.63-1.87,15.3-5.6,3.67-3.73,5.5-8.8,5.5-15.2,0-11.73-6.47-17.6-19.4-17.6h-13.2v38.4Z"/><path class="cls-1" d="M173.6,870.17c-13.2,0-24.77-2.87-34.7-8.6-9.93-5.73-17.67-13.77-23.2-24.1-5.53-10.33-8.3-22.3-8.3-35.9s2.77-25.93,8.3-36.2c5.53-10.27,13.27-18.27,23.2-24,9.93-5.73,21.5-8.6,34.7-8.6s24.77,2.83,34.7,8.5c9.93,5.67,17.63,13.6,23.1,23.8,5.47,10.2,8.2,22.1,8.2,35.7s-2.73,26-8.2,36.4c-5.47,10.4-13.17,18.5-23.1,24.3-9.93,5.8-21.5,8.7-34.7,8.7ZM173.6,844.77c11.07,0,19.87-3.93,26.4-11.8,6.53-7.87,9.8-18.33,9.8-31.4,0-8.67-1.5-16.27-4.5-22.8-3-6.53-7.23-11.6-12.7-15.2-5.47-3.6-11.8-5.33-19-5.2-7.2-.13-13.5,1.6-18.9,5.2-5.4,3.6-9.63,8.67-12.7,15.2-3.07,6.53-4.6,14.13-4.6,22.8s1.5,16.23,4.5,22.7c3,6.47,7.23,11.5,12.7,15.1,5.47,3.6,11.8,5.4,19,5.4Z"/><path class="cls-1" d="M260.8,867.57v-133.2c3.07-.13,6.53-.2,10.4-.2h24.2c4,0,7.47.07,10.4.2,15.73.54,27.2,4.37,34.4,11.5,7.2,7.13,10.8,16.23,10.8,27.3,0,9.73-2.5,18.03-7.5,24.9-5,6.87-11.97,11.43-20.9,13.7,3.07,2.4,6.07,5.63,9,9.7,2.93,4.07,6.87,10.03,11.8,17.9,2.53,3.87,4.63,7.27,6.3,10.2,1.67,2.93,3.3,5.77,4.9,8.5,1.6,2.73,3.4,5.9,5.4,9.5h-33.6l-22.6-42c-2.53-4.67-4.8-7.5-6.8-8.5s-4.8-1.5-8.4-1.5v52h-27.8ZM288.6,793.37h12.4c6.93,0,12.33-1.73,16.2-5.2,3.87-3.47,5.8-8.13,5.8-14,0-10.93-6.8-16.4-20.4-16.4h-14v35.6Z"/><path class="cls-1" d="M402,867.57v-108h-36.4v-25.2h101.6v25.2h-36v108h-29.2Z"/><path class="cls-1" d="M487.2,867.57v-133.2h81.4v25.2h-52.4v30.4h43.4v25h-43.4v52.6h-29Z"/><path class="cls-1" d="M647.2,870.17c-13.2,0-24.77-2.87-34.7-8.6-9.93-5.73-17.67-13.77-23.2-24.1-5.53-10.33-8.3-22.3-8.3-35.9s2.77-25.93,8.3-36.2c5.53-10.27,13.27-18.27,23.2-24,9.93-5.73,21.5-8.6,34.7-8.6s24.77,2.83,34.7,8.5c9.93,5.67,17.63,13.6,23.1,23.8,5.47,10.2,8.2,22.1,8.2,35.7s-2.73,26-8.2,36.4c-5.47,10.4-13.17,18.5-23.1,24.3-9.93,5.8-21.5,8.7-34.7,8.7ZM647.2,844.77c11.07,0,19.87-3.93,26.4-11.8,6.53-7.87,9.8-18.33,9.8-31.4,0-8.67-1.5-16.27-4.5-22.8-3-6.53-7.23-11.6-12.7-15.2-5.47-3.6-11.8-5.33-19-5.2-7.2-.13-13.5,1.6-18.9,5.2-5.4,3.6-9.63,8.67-12.7,15.2-3.07,6.53-4.6,14.13-4.6,22.8s1.5,16.23,4.5,22.7c3,6.47,7.23,11.5,12.7,15.1,5.46,3.6,11.8,5.4,19,5.4Z"/><path class="cls-1" d="M735.2,867.57v-133.2h29v108h48v25.2h-77Z"/><path class="cls-1" d="M833.79,867.57v-133.2h29v133.2h-29Z"/><path class="cls-1" d="M952.59,870.17c-13.2,0-24.77-2.87-34.7-8.6-9.93-5.73-17.67-13.77-23.2-24.1-5.53-10.33-8.3-22.3-8.3-35.9s2.77-25.93,8.3-36.2c5.53-10.27,13.27-18.27,23.2-24,9.93-5.73,21.5-8.6,34.7-8.6s24.77,2.83,34.7,8.5c9.93,5.67,17.63,13.6,23.1,23.8,5.47,10.2,8.2,22.1,8.2,35.7s-2.73,26-8.2,36.4c-5.47,10.4-13.17,18.5-23.1,24.3-9.93,5.8-21.5,8.7-34.7,8.7ZM952.59,844.77c11.07,0,19.87-3.93,26.4-11.8,6.53-7.87,9.8-18.33,9.8-31.4,0-8.67-1.5-16.27-4.5-22.8-3-6.53-7.23-11.6-12.7-15.2-5.47-3.6-11.8-5.33-19-5.2-7.2-.13-13.5,1.6-18.9,5.2-5.4,3.6-9.63,8.67-12.7,15.2-3.07,6.53-4.6,14.13-4.6,22.8s1.5,16.23,4.5,22.7c3,6.47,7.23,11.5,12.7,15.1,5.47,3.6,11.8,5.4,19,5.4Z"/></svg>