<?xml version="1.0" encoding="UTF-8"?><svg id="Layer_3" xmlns="http://www.w3.org/2000/svg" width="156" height="44" viewBox="0 0 156 44"><defs><style>.cls-1{fill:#fff;stroke-width:0px;}</style></defs><path class="cls-1" d="M152.4,40.5H.32V.41h152.08v40.09ZM1.07,39.75h150.58V1.16H1.07v38.59Z"/><path class="cls-1" d="M155.68,43.59H3.6V3.5h152.08v40.09ZM4.35,42.84h150.58V4.25H4.35v38.59Z"/><path class="cls-1" d="M40.02,28.26v-10.19h1v.66c.24-.21.51-.41.81-.57.3-.17.71-.25,1.23-.25.66,0,1.23.16,1.7.47.47.32.84.76,1.09,1.33s.38,1.24.38,2c0,.81-.13,1.5-.4,2.07s-.63,1-1.1,1.3-1,.45-1.61.45c-.56,0-1-.09-1.31-.27-.31-.18-.58-.4-.78-.64v3.14l-1,.5ZM43,24.64c.69,0,1.23-.25,1.61-.76.38-.5.57-1.23.57-2.17,0-.88-.2-1.59-.59-2.12s-.94-.79-1.65-.79c-.41,0-.79.1-1.12.3-.34.2-.6.47-.8.83v3.58c.25.32.54.59.85.8.31.22.69.32,1.13.32Z"/><path class="cls-1" d="M47.96,25.37v-.9h1.51v-5.49h-1.51v-.9h2.5v1.64l-.09-.2c.17-.34.42-.63.76-.87s.7-.42,1.09-.55.78-.19,1.15-.19.68.03.94.09c.26.06.46.14.6.24v2.44h-1.01v-2.14l.24.5c-.11-.04-.24-.06-.38-.08-.14-.01-.29-.02-.46-.02-.44,0-.88.08-1.31.23-.43.15-.78.38-1.06.69-.28.3-.42.68-.42,1.13v3.48h2.18v.9h-4.74Z"/><path class="cls-1" d="M60.42,25.54c-.67,0-1.26-.15-1.76-.45-.5-.3-.9-.73-1.18-1.3s-.42-1.26-.42-2.07.14-1.48.42-2.05.68-1.01,1.18-1.31c.5-.3,1.09-.46,1.76-.46s1.26.15,1.77.45c.51.3.9.73,1.18,1.3s.42,1.26.42,2.07-.14,1.48-.42,2.05-.67,1.01-1.18,1.31c-.51.3-1.1.46-1.77.46ZM60.42,24.64c.74,0,1.31-.26,1.72-.78.41-.52.61-1.23.61-2.15s-.2-1.62-.59-2.14c-.39-.52-.97-.77-1.74-.77s-1.34.25-1.73.75c-.39.5-.59,1.23-.59,2.18s.2,1.61.59,2.13c.4.52.97.78,1.73.78Z"/><path class="cls-1" d="M67.68,28.41l-.46-.86c.56-.05.98-.15,1.27-.28.29-.14.49-.33.6-.59s.16-.6.16-1.02v-7.58h1v7.75c0,.4-.05.76-.14,1.07s-.24.57-.43.78c-.2.23-.47.4-.8.52-.33.12-.73.19-1.19.21ZM67.24,18.98v-.9h2.5v.9h-2.5ZM69.75,16.58c-.19,0-.34-.06-.47-.19s-.19-.28-.19-.47c0-.19.06-.36.19-.49s.28-.2.47-.2c.2,0,.35.07.47.2s.18.29.18.49-.06.34-.18.47-.28.19-.47.19Z"/><path class="cls-1" d="M78.14,25.54c-.69,0-1.28-.18-1.77-.53-.49-.35-.86-.82-1.12-1.4-.26-.58-.39-1.21-.39-1.9,0-.81.14-1.5.41-2.07.27-.57.65-1,1.14-1.3.49-.3,1.06-.45,1.72-.45.54,0,1.03.12,1.48.37.45.25.81.63,1.09,1.15.27.52.41,1.19.41,2,0,.08,0,.17,0,.29,0,.12-.01.25-.02.41h-5.42v-.9h4.44c0-.65-.11-1.15-.32-1.5s-.47-.59-.78-.72c-.31-.13-.6-.2-.87-.2-.76,0-1.32.24-1.69.73-.37.48-.55,1.13-.55,1.94,0,.98.2,1.74.61,2.3.4.56.96.84,1.68.84.28,0,.57-.04.86-.13s.59-.23.88-.44l.54.67c-.3.23-.65.43-1.06.59s-.83.24-1.27.24Z"/><path class="cls-1" d="M83.96,25.37v-9.82l1-.48v10.3h-1ZM84.95,22.21v-1.18l2.74-2.95h1.16l-3.9,4.14ZM88.72,25.37l-2.44-4.82.7-.73,2.84,5.55h-1.1Z"/><path class="cls-1" d="M96.24,25.54c-.62,0-1.06-.16-1.33-.49s-.4-.74-.4-1.26v-4.82h-1.73v-.9h1.73v-2.51l1-.5v3.01h2.44v.9h-2.44v4.4c0,.23.02.44.07.63.04.19.14.33.3.44s.39.16.71.16c.38,0,.67-.05.88-.15.2-.1.37-.19.51-.28l-.11,1.04c-.19.1-.39.18-.63.24s-.56.09-.98.09Z"/><path class="cls-1" d="M104.51,25.54c-.69,0-1.28-.18-1.77-.53-.49-.35-.86-.82-1.12-1.4-.26-.58-.39-1.21-.39-1.9,0-.81.14-1.5.41-2.07.27-.57.65-1,1.14-1.3.49-.3,1.06-.45,1.72-.45.54,0,1.03.12,1.48.37.45.25.81.63,1.09,1.15.27.52.41,1.19.41,2,0,.08,0,.17,0,.29,0,.12-.01.25-.02.41h-5.42v-.9h4.44c0-.65-.11-1.15-.32-1.5s-.47-.59-.78-.72c-.31-.13-.6-.2-.87-.2-.76,0-1.32.24-1.69.73-.37.48-.55,1.13-.55,1.94,0,.98.2,1.74.61,2.3.4.56.96.84,1.68.84.28,0,.57-.04.86-.13s.59-.23.88-.44l.54.67c-.3.23-.65.43-1.06.59s-.83.24-1.27.24Z"/><path class="cls-1" d="M109.49,25.37v-.9h1.51v-5.49h-1.51v-.9h2.5v1.64l-.09-.2c.17-.34.42-.63.76-.87s.7-.42,1.09-.55.78-.19,1.15-.19.68.03.94.09c.26.06.46.14.6.24v2.44h-1.01v-2.14l.24.5c-.11-.04-.24-.06-.38-.08-.14-.01-.29-.02-.46-.02-.44,0-.88.08-1.31.23-.43.15-.78.38-1.06.69-.28.3-.42.68-.42,1.13v3.48h2.18v.9h-4.74Z"/></svg>