<?xml version="1.0" encoding="UTF-8"?><svg id="Layer_2" xmlns="http://www.w3.org/2000/svg" width="277" height="40" viewBox="0 0 277 40"><defs><style>.cls-1{fill:none;stroke:#fff;stroke-miterlimit:10;}</style></defs><path class="cls-1" d="M.68,38.45V1.16c.82-.04,1.76-.06,2.83-.06h6.69c1.08,0,2.03.02,2.86.06,3.81.08,6.82,1.09,9.04,3.05,2.22,1.96,3.33,4.71,3.33,8.26,0,2.54-.57,4.76-1.71,6.66-1.14,1.9-2.71,3.38-4.7,4.42-2,1.05-4.3,1.57-6.92,1.57h-3.64v13.33H.68ZM8.46,18.52h3.3c1.83,0,3.26-.52,4.28-1.57,1.03-1.04,1.54-2.46,1.54-4.26,0-3.29-1.81-4.93-5.43-4.93h-3.7v10.75Z"/><path class="cls-1" d="M31.09,38.45V1.16c.86-.04,1.83-.06,2.91-.06h6.78c1.12,0,2.09.02,2.91.06,4.4.15,7.62,1.22,9.63,3.22,2.02,2,3.02,4.55,3.02,7.64,0,2.73-.7,5.05-2.1,6.97-1.4,1.92-3.35,3.2-5.85,3.84.86.67,1.7,1.58,2.52,2.72.82,1.14,1.92,2.81,3.3,5.01.71,1.08,1.3,2.04,1.76,2.86.47.82.92,1.62,1.37,2.38.45.77.95,1.65,1.51,2.66h-9.41l-6.33-11.76c-.71-1.31-1.34-2.1-1.9-2.38-.56-.28-1.34-.42-2.35-.42v14.56h-7.78ZM38.87,17.68h3.47c1.94,0,3.45-.48,4.54-1.46,1.08-.97,1.62-2.28,1.62-3.92,0-3.06-1.9-4.59-5.71-4.59h-3.92v9.97Z"/><path class="cls-1" d="M79.53,39.18c-3.7,0-6.94-.8-9.72-2.41-2.78-1.6-4.95-3.85-6.5-6.75-1.55-2.89-2.32-6.24-2.32-10.05s.77-7.26,2.32-10.14c1.55-2.87,3.71-5.11,6.5-6.72,2.78-1.6,6.02-2.41,9.72-2.41s6.93.79,9.72,2.38c2.78,1.59,4.94,3.81,6.47,6.66s2.3,6.19,2.3,10-.77,7.28-2.3,10.19c-1.53,2.91-3.69,5.18-6.47,6.8-2.78,1.62-6.02,2.44-9.72,2.44ZM79.53,32.07c3.1,0,5.56-1.1,7.39-3.3,1.83-2.2,2.74-5.13,2.74-8.79,0-2.43-.42-4.55-1.26-6.38-.84-1.83-2.03-3.25-3.56-4.26-1.53-1.01-3.3-1.49-5.32-1.46-2.02-.04-3.78.45-5.29,1.46-1.51,1.01-2.7,2.43-3.56,4.26-.86,1.83-1.29,3.96-1.29,6.38s.42,4.55,1.26,6.36c.84,1.81,2.02,3.22,3.56,4.23s3.3,1.51,5.32,1.51Z"/><path class="cls-1" d="M104.89,39.29c-.93,0-1.91-.09-2.94-.28-1.03-.19-2.03-.49-3-.9l2.13-6.78c.48.26.97.48,1.46.64.49.17.99.25,1.51.25.86,0,1.54-.27,2.04-.81.5-.54.76-1.43.76-2.66V1.16h7.84v28.28c0,3.02-.89,5.42-2.66,7.2-1.77,1.77-4.15,2.66-7.14,2.66Z"/><path class="cls-1" d="M122.53,38.45V1.16h22.68v7.06h-14.67v7.45h12.15v6.83h-12.15v8.9h14.67v7.06h-22.68Z"/><path class="cls-1" d="M152.21,38.45V1.16h8.12v14.45l12.15-14.45h9.69l-15.34,17.7,14.56,19.6h-9.86l-11.2-15.06v15.06h-8.12Z"/><path class="cls-1" d="M194.89,38.45V8.21h-10.19V1.16h28.45v7.06h-10.08v30.24h-8.18Z"/><path class="cls-1" d="M218.74,38.45V1.16h22.68v7.06h-14.67v7.45h12.15v6.83h-12.15v8.9h14.67v7.06h-22.68Z"/><path class="cls-1" d="M248.2,38.45V1.16c.86-.04,1.83-.06,2.91-.06h6.78c1.12,0,2.09.02,2.91.06,4.41.15,7.62,1.22,9.63,3.22,2.02,2,3.02,4.55,3.02,7.64,0,2.73-.7,5.05-2.1,6.97-1.4,1.92-3.35,3.2-5.85,3.84.86.67,1.7,1.58,2.52,2.72.82,1.14,1.92,2.81,3.3,5.01.71,1.08,1.3,2.04,1.76,2.86.47.82.92,1.62,1.37,2.38.45.77.95,1.65,1.51,2.66h-9.41l-6.33-11.76c-.71-1.31-1.34-2.1-1.9-2.38-.56-.28-1.34-.42-2.35-.42v14.56h-7.78ZM255.98,17.68h3.47c1.94,0,3.45-.48,4.54-1.46,1.08-.97,1.62-2.28,1.62-3.92,0-3.06-1.9-4.59-5.71-4.59h-3.92v9.97Z"/></svg>